<svg id="visual" viewBox="0 0 900 600" width="900" height="600" xmlns="http://www.w3.org/2000/svg" xmlns:xlink="http://www.w3.org/1999/xlink" version="1.1"><path d="M0 277L90 205L180 265L270 181L360 193L450 253L540 259L630 133L720 235L810 109L900 235L900 0L810 0L720 0L630 0L540 0L450 0L360 0L270 0L180 0L90 0L0 0Z" fill="#f3f3f3"></path><path d="M0 319L90 241L180 313L270 217L360 283L450 349L540 301L630 157L720 259L810 157L900 295L900 233L810 107L720 233L630 131L540 257L450 251L360 191L270 179L180 263L90 203L0 275Z" fill="#9679bb"></path><path d="M0 373L90 361L180 355L270 367L360 343L450 415L540 337L630 337L720 307L810 265L900 331L900 293L810 155L720 257L630 155L540 299L450 347L360 281L270 215L180 311L90 239L0 317Z" fill="#270082"></path><path d="M0 421L90 451L180 463L270 409L360 403L450 445L540 433L630 385L720 421L810 331L900 379L900 329L810 263L720 305L630 335L540 335L450 413L360 341L270 365L180 353L90 359L0 371Z" fill="#270082"></path><path d="M0 475L90 541L180 541L270 499L360 493L450 469L540 523L630 439L720 457L810 355L900 463L900 377L810 329L720 419L630 383L540 431L450 443L360 401L270 407L180 461L90 449L0 419Z" fill="#9679bb"></path><path d="M0 601L90 601L180 601L270 601L360 601L450 601L540 601L630 601L720 601L810 601L900 601L900 461L810 353L720 455L630 437L540 521L450 467L360 491L270 497L180 539L90 539L0 473Z" fill="#f3f3f3"></path></svg>