<svg id="visual" viewBox="0 0 960 340" width="960" height="340" xmlns="http://www.w3.org/2000/svg" xmlns:xlink="http://www.w3.org/1999/xlink" version="1.1"><path d="M0 157L96 117L192 151L288 103L384 110L480 144L576 147L672 76L768 134L864 62L960 134L960 0L864 0L768 0L672 0L576 0L480 0L384 0L288 0L192 0L96 0L0 0Z" fill="#8a0cd9"></path><path d="M0 181L96 137L192 178L288 123L384 161L480 198L576 171L672 89L768 147L864 89L960 168L960 132L864 60L768 132L672 74L576 145L480 142L384 108L288 101L192 149L96 115L0 155Z" fill="#a44edf"></path><path d="M0 212L96 205L192 202L288 208L384 195L480 236L576 191L672 191L768 174L864 151L960 188L960 166L864 87L768 145L672 87L576 169L480 196L384 159L288 121L192 176L96 135L0 179Z" fill="#bb79e5"></path><path d="M0 239L96 256L192 263L288 232L384 229L480 253L576 246L672 219L768 239L864 188L960 215L960 186L864 149L768 172L672 189L576 189L480 234L384 193L288 206L192 200L96 203L0 210Z" fill="#d0a2eb"></path><path d="M0 270L96 307L192 307L288 283L384 280L480 266L576 297L672 249L768 259L864 202L960 263L960 213L864 186L768 237L672 217L576 244L480 251L384 227L288 230L192 261L96 254L0 237Z" fill="#e3cbef"></path><path d="M0 341L96 341L192 341L288 341L384 341L480 341L576 341L672 341L768 341L864 341L960 341L960 261L864 200L768 257L672 247L576 295L480 264L384 278L288 281L192 305L96 305L0 268Z" fill="#f3f3f3"></path></svg>