<svg id="visual" viewBox="0 0 960 540" width="960" height="540" xmlns="http://www.w3.org/2000/svg" xmlns:xlink="http://www.w3.org/1999/xlink" version="1.1"><path d="M0 249L96 185L192 239L288 163L384 174L480 228L576 233L672 120L768 212L864 98L960 212L960 0L864 0L768 0L672 0L576 0L480 0L384 0L288 0L192 0L96 0L0 0Z" fill="#8a0cd9"></path><path d="M0 287L96 217L192 282L288 195L384 255L480 314L576 271L672 141L768 233L864 141L960 266L960 210L864 96L768 210L672 118L576 231L480 226L384 172L288 161L192 237L96 183L0 247Z" fill="#a70acb"></path><path d="M0 336L96 325L192 320L288 330L384 309L480 374L576 303L672 303L768 276L864 239L960 298L960 264L864 139L768 231L672 139L576 269L480 312L384 253L288 193L192 280L96 215L0 285Z" fill="#bd18bf"></path><path d="M0 379L96 406L192 417L288 368L384 363L480 401L576 390L672 347L768 379L864 298L960 341L960 296L864 237L768 274L672 301L576 301L480 372L384 307L288 328L192 318L96 323L0 334Z" fill="#cc2ab4"></path><path d="M0 428L96 487L192 487L288 449L384 444L480 422L576 471L672 395L768 411L864 320L960 417L960 339L864 296L768 377L672 345L576 388L480 399L384 361L288 366L192 415L96 404L0 377Z" fill="#d83daa"></path><path d="M0 541L96 541L192 541L288 541L384 541L480 541L576 541L672 541L768 541L864 541L960 541L960 415L864 318L768 409L672 393L576 469L480 420L384 442L288 447L192 485L96 485L0 426Z" fill="#e04fa3"></path></svg>