<svg width="275" height="82" viewBox="0 0 275 82" fill="none" xmlns="http://www.w3.org/2000/svg">
<path d="M10.672 40.528C8.112 40.528 6.08 39.984 4.576 38.896C3.072 37.808 1.984 36.272 1.312 34.288C0.672 32.272 0.352 29.904 0.352 27.184V14.128C0.352 11.344 0.672 8.944 1.312 6.928C1.952 4.912 3.072 3.376 4.672 2.32C6.304 1.232 8.544 0.687997 11.392 0.687997C14.048 0.687997 16.16 1.136 17.728 2.032C19.296 2.928 20.416 4.224 21.088 5.92C21.792 7.584 22.144 9.616 22.144 12.016V14.032H15.376V11.824C15.376 10.576 15.28 9.504 15.088 8.608C14.928 7.712 14.576 7.04 14.032 6.592C13.52 6.112 12.672 5.872 11.488 5.872C10.24 5.872 9.328 6.176 8.752 6.784C8.208 7.392 7.856 8.192 7.696 9.184C7.568 10.176 7.504 11.264 7.504 12.448V28.72C7.504 30.064 7.616 31.232 7.84 32.224C8.064 33.216 8.48 33.984 9.088 34.528C9.696 35.04 10.56 35.296 11.68 35.296C12.832 35.296 13.712 35.008 14.32 34.432C14.928 33.856 15.344 33.056 15.568 32.032C15.824 31.008 15.952 29.792 15.952 28.384V24.736H11.776V20.272H22.336V40H17.776L17.248 36.16C16.736 37.44 15.952 38.496 14.896 39.328C13.872 40.128 12.464 40.528 10.672 40.528ZM31.7268 40L26.2068 1.12H32.1588L35.3748 26.32L39.4068 1.216H44.2548L48.3828 26.32L51.5508 1.12H57.4068L51.9828 40H46.2228L41.9028 13.936L37.6308 40H31.7268ZM60.8586 40V35.296L70.4586 20.464C71.1626 19.376 71.8186 18.336 72.4266 17.344C73.0666 16.352 73.5786 15.328 73.9626 14.272C74.3786 13.184 74.5866 12 74.5866 10.72C74.5866 9.28 74.3306 8.176 73.8186 7.408C73.3066 6.64 72.5066 6.256 71.4186 6.256C70.3946 6.256 69.5946 6.544 69.0186 7.12C68.4426 7.696 68.0426 8.448 67.8186 9.376C67.6266 10.304 67.5306 11.328 67.5306 12.448V14.08H61.0026V12.352C61.0026 10.048 61.3386 8.032 62.0106 6.304C62.7146 4.544 63.8186 3.168 65.3226 2.176C66.8266 1.184 68.7946 0.687997 71.2266 0.687997C74.5546 0.687997 77.0506 1.584 78.7146 3.376C80.3786 5.168 81.2106 7.664 81.2106 10.864C81.2106 12.464 80.9866 13.92 80.5386 15.232C80.0906 16.512 79.4986 17.744 78.7626 18.928C78.0266 20.112 77.2266 21.328 76.3626 22.576L68.3946 34.672H80.2026V40H60.8586Z" fill="#FF40AF"/>
<path d="M0.928 81V42.12H10.096C13.264 42.12 15.728 42.552 17.488 43.416C19.28 44.28 20.544 45.608 21.28 47.4C22.048 49.192 22.432 51.464 22.432 54.216V68.424C22.432 71.24 22.048 73.592 21.28 75.48C20.544 77.336 19.296 78.728 17.536 79.656C15.808 80.552 13.424 81 10.384 81H0.928ZM8.032 76.056H10.192C11.824 76.056 12.992 75.768 13.696 75.192C14.4 74.616 14.832 73.784 14.992 72.696C15.152 71.576 15.232 70.216 15.232 68.616V53.736C15.232 52.168 15.12 50.904 14.896 49.944C14.672 48.984 14.208 48.28 13.504 47.832C12.8 47.384 11.664 47.16 10.096 47.16H8.032V76.056ZM42.9107 81.432C41.6627 81.432 40.5907 81.112 39.6947 80.472C38.7987 79.8 38.1107 78.968 37.6307 77.976C37.1507 76.952 36.9107 75.896 36.9107 74.808C36.9107 73.08 37.2307 71.624 37.8707 70.44C38.5107 69.256 39.3587 68.264 40.4147 67.464C41.4708 66.664 42.6708 65.976 44.0148 65.4C45.3588 64.792 46.7188 64.248 48.0948 63.768V61.368C48.0948 60.568 48.0308 59.896 47.9028 59.352C47.8068 58.808 47.5988 58.392 47.2788 58.104C46.9908 57.816 46.5268 57.672 45.8868 57.672C45.3428 57.672 44.8948 57.8 44.5428 58.056C44.2228 58.312 43.9828 58.68 43.8228 59.16C43.6948 59.608 43.6147 60.136 43.5827 60.744L43.4868 62.424L37.2947 62.184C37.3907 58.984 38.1747 56.632 39.6467 55.128C41.1507 53.592 43.4227 52.824 46.4627 52.824C49.2468 52.824 51.2628 53.592 52.5108 55.128C53.7908 56.664 54.4308 58.744 54.4308 61.368V74.184C54.4308 75.208 54.4468 76.136 54.4788 76.968C54.5428 77.8 54.6068 78.552 54.6708 79.224C54.7668 79.896 54.8468 80.488 54.9108 81H49.0548C48.9588 80.36 48.8307 79.64 48.6708 78.84C48.5427 78.008 48.4468 77.4 48.3828 77.016C48.0628 78.136 47.4548 79.16 46.5588 80.088C45.6628 80.984 44.4468 81.432 42.9107 81.432ZM45.3108 76.584C45.7268 76.584 46.1108 76.488 46.4627 76.296C46.8467 76.072 47.1827 75.816 47.4707 75.528C47.7587 75.24 47.9668 74.984 48.0948 74.76V67.032C47.3907 67.448 46.7187 67.864 46.0787 68.28C45.4708 68.696 44.9268 69.16 44.4468 69.672C43.9988 70.152 43.6468 70.68 43.3908 71.256C43.1668 71.832 43.0548 72.504 43.0548 73.272C43.0548 74.296 43.2468 75.112 43.6307 75.72C44.0467 76.296 44.6068 76.584 45.3108 76.584ZM77.0939 81.432C74.7579 81.432 72.8379 80.808 71.3339 79.56C69.8299 78.312 68.7579 76.488 68.1179 74.088L72.9659 72.216C73.3499 73.72 73.8619 74.872 74.5019 75.672C75.1419 76.472 75.9739 76.872 76.9979 76.872C77.7659 76.872 78.3419 76.68 78.7259 76.296C79.1099 75.912 79.3019 75.384 79.3019 74.712C79.3019 73.944 79.0619 73.256 78.5819 72.648C78.1339 72.008 77.3499 71.224 76.2299 70.296L72.8699 67.464C71.6539 66.408 70.6619 65.336 69.8939 64.248C69.1579 63.128 68.7899 61.736 68.7899 60.072C68.7899 58.568 69.1259 57.288 69.7979 56.232C70.5019 55.144 71.4459 54.312 72.6299 53.736C73.8459 53.128 75.1899 52.824 76.6619 52.824C78.9019 52.824 80.6939 53.496 82.0379 54.84C83.4139 56.152 84.2939 57.88 84.6779 60.024L80.4059 61.848C80.2459 61.08 80.0059 60.376 79.6859 59.736C79.3979 59.064 79.0139 58.52 78.5339 58.104C78.0539 57.688 77.4939 57.48 76.8539 57.48C76.1819 57.48 75.6379 57.688 75.2219 58.104C74.8379 58.52 74.6459 59.048 74.6459 59.688C74.6459 60.232 74.8699 60.792 75.3179 61.368C75.7979 61.944 76.4699 62.6 77.3339 63.336L80.7419 66.408C81.4779 67.048 82.1819 67.736 82.8539 68.472C83.5259 69.208 84.0859 70.04 84.5339 70.968C84.9819 71.864 85.2059 72.904 85.2059 74.088C85.2059 75.688 84.8379 77.032 84.1019 78.12C83.3979 79.208 82.4219 80.04 81.1739 80.616C79.9579 81.16 78.5979 81.432 77.0939 81.432ZM99.1926 81V42.12H105.721V55.896C106.681 54.936 107.721 54.184 108.841 53.64C109.993 53.096 111.241 52.824 112.585 52.824C113.705 52.824 114.601 53.112 115.273 53.688C115.945 54.232 116.441 54.968 116.761 55.896C117.081 56.824 117.241 57.832 117.241 58.92V81H110.713V60.216C110.713 59.384 110.585 58.744 110.329 58.296C110.073 57.848 109.577 57.624 108.841 57.624C108.393 57.624 107.881 57.752 107.305 58.008C106.761 58.264 106.233 58.6 105.721 59.016V81H99.1926ZM144.291 81.432C143.266 81.432 142.306 81.192 141.41 80.712C140.514 80.232 139.682 79.64 138.914 78.936V81H132.386V42.12H138.914V55.368C139.714 54.6 140.578 53.992 141.506 53.544C142.466 53.064 143.49 52.824 144.578 52.824C145.826 52.824 146.85 53.112 147.65 53.688C148.451 54.264 149.075 55.032 149.523 55.992C149.97 56.92 150.274 57.928 150.434 59.016C150.627 60.072 150.723 61.096 150.723 62.088V71.496C150.723 73.32 150.499 74.984 150.051 76.488C149.635 77.992 148.946 79.192 147.986 80.088C147.058 80.984 145.826 81.432 144.291 81.432ZM141.794 76.872C142.498 76.872 143.01 76.648 143.33 76.2C143.682 75.72 143.906 75.096 144.002 74.328C144.13 73.528 144.194 72.664 144.194 71.736V61.8C144.194 60.936 144.13 60.168 144.002 59.496C143.874 58.792 143.634 58.232 143.282 57.816C142.962 57.4 142.45 57.192 141.746 57.192C141.234 57.192 140.738 57.32 140.258 57.576C139.778 57.8 139.33 58.056 138.914 58.344V75.864C139.33 76.152 139.778 76.392 140.258 76.584C140.77 76.776 141.282 76.872 141.794 76.872ZM173.934 81.432C171.918 81.432 170.254 81.064 168.942 80.328C167.63 79.56 166.638 78.456 165.966 77.016C165.326 75.576 165.006 73.832 165.006 71.784V62.472C165.006 60.424 165.326 58.68 165.966 57.24C166.638 55.8 167.63 54.712 168.942 53.976C170.254 53.208 171.918 52.824 173.934 52.824C175.95 52.824 177.614 53.208 178.926 53.976C180.27 54.712 181.262 55.8 181.902 57.24C182.574 58.68 182.91 60.424 182.91 62.472V71.784C182.91 73.832 182.574 75.576 181.902 77.016C181.262 78.456 180.27 79.56 178.926 80.328C177.614 81.064 175.95 81.432 173.934 81.432ZM173.982 76.92C174.718 76.92 175.262 76.712 175.614 76.296C175.966 75.88 176.19 75.32 176.286 74.616C176.382 73.88 176.43 73.08 176.43 72.216V62.04C176.43 61.176 176.382 60.392 176.286 59.688C176.19 58.984 175.966 58.424 175.614 58.008C175.262 57.56 174.718 57.336 173.982 57.336C173.246 57.336 172.702 57.56 172.35 58.008C171.998 58.424 171.758 58.984 171.63 59.688C171.534 60.392 171.486 61.176 171.486 62.04V72.216C171.486 73.08 171.534 73.88 171.63 74.616C171.758 75.32 171.998 75.88 172.35 76.296C172.702 76.712 173.246 76.92 173.982 76.92ZM203.073 81.432C201.825 81.432 200.753 81.112 199.857 80.472C198.961 79.8 198.273 78.968 197.793 77.976C197.313 76.952 197.073 75.896 197.073 74.808C197.073 73.08 197.393 71.624 198.033 70.44C198.673 69.256 199.521 68.264 200.577 67.464C201.633 66.664 202.833 65.976 204.177 65.4C205.521 64.792 206.881 64.248 208.257 63.768V61.368C208.257 60.568 208.193 59.896 208.065 59.352C207.969 58.808 207.761 58.392 207.441 58.104C207.153 57.816 206.689 57.672 206.049 57.672C205.505 57.672 205.057 57.8 204.705 58.056C204.385 58.312 204.145 58.68 203.985 59.16C203.857 59.608 203.777 60.136 203.745 60.744L203.649 62.424L197.457 62.184C197.553 58.984 198.337 56.632 199.809 55.128C201.313 53.592 203.585 52.824 206.625 52.824C209.409 52.824 211.425 53.592 212.673 55.128C213.953 56.664 214.593 58.744 214.593 61.368V74.184C214.593 75.208 214.609 76.136 214.641 76.968C214.705 77.8 214.769 78.552 214.833 79.224C214.929 79.896 215.009 80.488 215.073 81H209.217C209.121 80.36 208.993 79.64 208.833 78.84C208.705 78.008 208.609 77.4 208.545 77.016C208.225 78.136 207.617 79.16 206.721 80.088C205.825 80.984 204.609 81.432 203.073 81.432ZM205.473 76.584C205.889 76.584 206.273 76.488 206.625 76.296C207.009 76.072 207.345 75.816 207.633 75.528C207.921 75.24 208.129 74.984 208.257 74.76V67.032C207.553 67.448 206.881 67.864 206.241 68.28C205.633 68.696 205.089 69.16 204.609 69.672C204.161 70.152 203.809 70.68 203.553 71.256C203.329 71.832 203.217 72.504 203.217 73.272C203.217 74.296 203.409 75.112 203.793 75.72C204.209 76.296 204.769 76.584 205.473 76.584ZM229.864 81V53.256H236.392V57.528C237.352 55.896 238.312 54.728 239.272 54.024C240.232 53.288 241.288 52.92 242.44 52.92C242.632 52.92 242.792 52.936 242.92 52.968C243.08 52.968 243.256 52.984 243.448 53.016V59.784C243.064 59.624 242.632 59.496 242.152 59.4C241.704 59.272 241.24 59.208 240.76 59.208C239.896 59.208 239.112 59.416 238.408 59.832C237.704 60.248 237.032 60.936 236.392 61.896V81H229.864ZM263.202 81.432C260.994 81.432 259.314 80.648 258.162 79.08C257.042 77.512 256.482 75 256.482 71.544V63.048C256.482 61.128 256.69 59.4 257.106 57.864C257.554 56.328 258.258 55.112 259.218 54.216C260.178 53.288 261.474 52.824 263.106 52.824C264.098 52.824 265.01 53.032 265.842 53.448C266.706 53.832 267.49 54.344 268.194 54.984V42.12H274.722V81H268.194V79.032C267.458 79.768 266.674 80.36 265.842 80.808C265.01 81.224 264.13 81.432 263.202 81.432ZM265.602 76.92C265.954 76.92 266.354 76.84 266.802 76.68C267.25 76.52 267.714 76.296 268.194 76.008V58.2C267.81 57.944 267.394 57.736 266.946 57.576C266.498 57.384 266.034 57.288 265.554 57.288C264.626 57.288 263.97 57.72 263.586 58.584C263.234 59.416 263.058 60.44 263.058 61.656V72.024C263.058 72.952 263.122 73.784 263.25 74.52C263.378 75.256 263.618 75.848 263.97 76.296C264.354 76.712 264.898 76.92 265.602 76.92Z" fill="#F3F3F3"/>
</svg>
